<?xml version="1.0" standalone="no"?>
<!DOCTYPE svg PUBLIC "-//W3C//DTD SVG 20010904//EN"
 "http://www.w3.org/TR/2001/REC-SVG-20010904/DTD/svg10.dtd">
<svg version="1.0" xmlns="http://www.w3.org/2000/svg"
 width="512.000000pt" height="512.000000pt" viewBox="0 0 512.000000 512.000000"
 preserveAspectRatio="xMidYMid meet">

<g transform="translate(0.000000,512.000000) scale(0.100000,-0.100000)"
fill="#000000" stroke="none">
<path d="M2525 5111 c-64 -27 -81 -110 -32 -158 20 -21 37 -28 67 -28 116 0
130 170 15 190 -16 2 -39 1 -50 -4z"/>
<path d="M3075 4882 c-16 -11 -67 -58 -112 -105 -77 -80 -83 -90 -83 -128 0
-54 44 -99 98 -99 31 0 47 11 140 104 100 99 105 105 105 145 0 78 -83 124
-148 83z"/>
<path d="M1931 4869 c-65 -61 -49 -109 74 -228 76 -74 100 -91 124 -91 46 0
78 19 96 57 26 55 13 81 -94 187 -91 89 -101 96 -138 96 -26 0 -47 -7 -62 -21z"/>
<path d="M733 4845 c-40 -17 -63 -61 -63 -120 0 -106 69 -162 149 -121 36 19
51 55 51 126 0 51 -4 64 -27 89 -34 36 -68 44 -110 26z"/>
<path d="M4302 4845 c-45 -20 -66 -72 -59 -145 5 -45 12 -60 37 -82 42 -38 88
-38 129 1 29 27 31 33 31 104 0 67 -3 77 -26 101 -15 14 -32 26 -40 26 -7 0
-18 2 -26 5 -7 2 -28 -2 -46 -10z"/>
<path d="M2525 4731 c-11 -5 -29 -19 -40 -31 -18 -20 -20 -39 -23 -177 -4
-165 3 -201 42 -228 11 -8 36 -15 56 -15 20 0 45 7 56 15 39 27 46 63 42 229
-3 151 -4 156 -28 181 -28 27 -74 39 -105 26z"/>
<path d="M454 4570 c-56 -22 -72 -108 -31 -156 19 -22 34 -28 80 -32 72 -6
103 2 133 35 43 46 27 121 -33 152 -25 13 -118 14 -149 1z"/>
<path d="M915 4547 c-25 -25 -35 -44 -35 -67 0 -23 10 -42 35 -67 35 -35 36
-35 105 -31 60 3 74 8 97 31 38 38 38 96 0 134 -23 23 -37 28 -97 31 -69 4
-70 4 -105 -31z"/>
<path d="M4018 4564 c-34 -18 -48 -43 -48 -84 0 -66 45 -100 130 -100 85 0
130 34 130 100 0 42 -15 67 -50 85 -37 19 -127 19 -162 -1z"/>
<path d="M4515 4571 c-63 -26 -81 -110 -32 -158 23 -23 37 -28 96 -31 64 -4
70 -2 102 26 28 25 34 37 34 72 0 35 -6 47 -33 71 -28 25 -40 29 -90 28 -31 0
-66 -4 -77 -8z"/>
<path d="M723 4358 c-49 -23 -70 -137 -37 -199 18 -36 67 -59 107 -52 15 3 38
19 52 35 20 24 25 40 25 88 0 33 -5 71 -12 85 -21 47 -85 67 -135 43z"/>
<path d="M4280 4343 c-39 -35 -51 -116 -27 -176 28 -67 110 -82 162 -30 22 23
25 34 25 100 0 71 -2 77 -31 104 -41 39 -87 39 -129 2z"/>
<path d="M2467 4059 c-99 -10 -243 -54 -327 -101 -180 -101 -336 -282 -402
-464 l-22 -61 -62 52 c-126 108 -240 154 -399 162 -127 6 -220 -13 -331 -67
-152 -76 -276 -219 -331 -383 -26 -80 -27 -89 -31 -357 -4 -314 4 -373 64
-500 46 -97 104 -172 181 -233 l63 -49 0 -64 0 -63 -37 -10 c-21 -5 -108 -26
-193 -46 -201 -48 -307 -97 -409 -191 -117 -109 -185 -226 -215 -376 -13 -62
-16 -151 -16 -457 l0 -381 29 -32 29 -33 421 -3 421 -3 0 -165 0 -166 34 -34
34 -34 573 0 c437 0 580 3 599 13 14 7 33 29 43 50 l19 37 129 0 c116 0 129
-2 129 -17 1 -23 28 -57 59 -73 47 -24 123 13 133 65 3 18 12 20 116 23 95 2
112 0 112 -13 0 -8 13 -29 29 -47 l29 -33 611 0 611 0 27 28 28 27 3 170 3
170 415 0 414 0 32 29 33 29 3 384 c2 320 0 396 -13 463 -31 152 -98 269 -216
379 -102 94 -208 143 -409 191 -85 20 -172 41 -192 46 l-38 10 0 63 0 64 63
49 c77 61 135 136 181 233 60 127 68 186 64 500 -4 268 -5 277 -31 357 -55
164 -179 307 -331 383 -111 54 -204 73 -331 67 -156 -8 -286 -61 -404 -164
-27 -24 -52 -43 -54 -43 -3 0 -11 17 -17 38 -7 20 -33 78 -59 127 -37 73 -65
109 -146 191 -117 119 -212 179 -352 224 -83 27 -116 33 -243 44 -19 2 -75 -1
-123 -5z m311 -232 c106 -37 176 -82 263 -168 63 -62 85 -93 122 -170 26 -54
52 -127 61 -171 15 -74 21 -138 12 -138 -3 0 -89 50 -192 110 -235 138 -237
138 -332 46 -190 -182 -341 -236 -657 -236 l-175 0 0 49 c0 308 170 566 438
668 99 37 135 42 267 39 99 -2 133 -7 193 -29z m-1423 -402 c72 -20 166 -84
216 -147 41 -52 78 -121 79 -145 0 -17 -115 -74 -215 -107 -142 -46 -217 -57
-453 -63 l-222 -6 6 59 c18 177 117 321 267 389 98 45 208 52 322 20z m2615
14 c211 -34 361 -199 384 -423 l6 -59 -222 6 c-287 7 -425 36 -601 124 -65 32
-68 36 -62 61 31 126 199 267 345 291 76 12 77 12 150 0z m-928 -383 l193
-113 3 -164 c2 -120 -2 -186 -13 -244 -31 -153 -130 -316 -248 -404 -379 -286
-917 -117 -1064 334 -23 70 -26 102 -31 256 l-4 177 228 4 c212 5 236 7 317
32 138 41 259 107 362 196 26 22 50 40 55 40 5 0 96 -51 202 -114z m-1362
-303 c0 -185 -11 -250 -54 -339 -64 -128 -192 -222 -340 -246 -188 -31 -394
79 -476 254 -37 78 -50 146 -50 254 l0 84 201 0 c281 0 450 29 638 111 36 15
69 28 74 29 4 0 7 -66 7 -147z m1839 118 c194 -82 358 -111 640 -111 l201 0 0
-84 c0 -113 -14 -178 -55 -262 -84 -172 -285 -277 -471 -246 -195 32 -353 187
-384 377 -10 63 -14 355 -4 355 3 0 36 -13 73 -29z m-1696 -678 c60 -94 129
-167 215 -230 l72 -54 0 -69 c0 -39 -2 -70 -4 -70 -2 0 -34 14 -70 31 -37 17
-147 51 -244 75 -97 24 -187 46 -199 49 -21 5 -23 11 -23 70 l0 64 60 47 c33
25 78 71 101 100 23 30 43 54 45 54 2 0 23 -30 47 -67z m1566 13 c23 -29 68
-75 101 -100 l60 -47 0 -64 c0 -59 -2 -65 -22 -70 -13 -3 -103 -25 -200 -49
-97 -24 -207 -58 -244 -75 -36 -17 -68 -31 -70 -31 -2 0 -4 31 -4 69 l0 70 65
46 c79 57 183 167 231 246 19 33 37 59 39 59 1 0 21 -24 44 -54z m-2019 -302
c0 -53 -9 -83 -70 -228 -38 -92 -73 -172 -76 -178 -4 -6 -40 70 -80 167 -65
155 -74 185 -74 239 l0 61 150 0 150 0 0 -61z m2680 0 c0 -53 -9 -83 -70 -228
-38 -92 -73 -172 -76 -178 -4 -6 -40 70 -80 167 -65 155 -74 185 -74 239 l0
61 150 0 150 0 0 -61z m-1665 -99 c35 -9 109 -15 175 -15 66 0 140 6 175 15
33 8 63 14 68 15 4 0 7 -45 7 -99 l0 -99 -122 -281 c-68 -154 -125 -281 -128
-281 -3 0 -60 126 -127 280 l-123 280 0 100 c0 55 3 100 8 100 4 -1 34 -7 67
-15z m-1386 -319 c55 -135 101 -247 101 -250 0 -3 -15 -27 -34 -53 -94 -132
-154 -307 -163 -475 l-6 -108 -148 0 -149 0 0 241 0 241 -29 29 c-41 41 -101
41 -142 0 l-29 -29 0 -241 0 -241 -101 0 -101 0 4 333 c5 352 5 359 59 472 34
73 133 169 214 206 48 23 348 108 416 118 3 1 52 -109 108 -243z m746 194 c94
-23 171 -43 173 -45 2 -2 -74 -22 -168 -44 -95 -23 -201 -53 -237 -66 -41 -15
-63 -19 -60 -11 56 144 91 216 106 212 9 -3 93 -24 186 -46z m1875 -52 c23
-57 45 -109 47 -116 4 -9 -12 -6 -48 9 -30 11 -134 40 -232 64 -98 24 -181 45
-183 48 -4 4 327 90 367 96 3 1 25 -45 49 -101z m782 58 c98 -24 207 -58 244
-75 80 -37 179 -133 213 -206 54 -113 54 -120 59 -472 l4 -333 -101 0 -101 0
0 241 0 241 -29 29 c-41 41 -101 41 -142 0 l-29 -29 0 -241 0 -241 -148 0
-149 0 -6 98 c-11 173 -67 341 -157 473 -22 32 -40 62 -40 66 0 7 201 493 204
493 1 0 81 -20 178 -44z"/>
<path d="M2183 2795 c-64 -27 -76 -110 -24 -157 43 -39 92 -38 132 1 16 16 30
38 30 48 4 58 -18 97 -63 112 -38 13 -36 13 -75 -4z"/>
<path d="M2852 2795 c-38 -17 -66 -71 -56 -110 11 -43 52 -75 96 -75 108 0
137 154 36 189 -38 13 -35 13 -76 -4z"/>
<path d="M2368 2441 c-69 -61 -26 -158 89 -201 80 -30 147 -26 221 11 105 52
133 127 71 188 -38 39 -79 40 -134 6 -51 -31 -66 -31 -115 0 -53 33 -92 32
-132 -4z"/>
</g>
</svg>
